<svg width="14" height="16" viewBox="0 0 14 16" fill="none" xmlns="http://www.w3.org/2000/svg">
<path d="M4.70125 13.6275C4.61119 13.9337 4.61119 13.9697 4.35901 14.3119C3.96274 14.8163 3.17019 15.5908 2.32361 15.5908C1.5851 15.5908 1.17081 14.9244 1.17081 13.8616C1.17081 12.8709 1.7292 10.8535 2.07143 10.097C2.68386 8.83615 3.53044 8.1877 4.23293 8.1877C5.42175 8.1877 5.65591 9.66472 5.65591 9.80882C5.65591 9.82684 5.60187 10.061 5.58386 10.097L4.70125 13.6275ZM5.85405 9.01628C5.65591 8.54795 5.16957 7.82745 4.23293 7.82745C2.19752 7.82745 0 10.4573 0 13.1231C0 14.9063 1.04472 15.9511 2.26957 15.9511C3.26025 15.9511 4.10684 15.1765 4.61119 14.5821C4.79131 15.6449 5.6379 15.9511 6.17827 15.9511C6.71864 15.9511 7.15094 15.6268 7.47517 14.9784C7.76337 14.366 8.01554 13.2672 8.01554 13.1952C8.01554 13.1051 7.94349 13.0331 7.83542 13.0331C7.6733 13.0331 7.65529 13.1231 7.58324 13.3933C7.31306 14.456 6.97082 15.5908 6.23231 15.5908C5.70995 15.5908 5.67392 15.1225 5.67392 14.7622C5.67392 14.348 5.72796 14.1498 5.89007 13.4473C6.01616 12.997 6.10622 12.6008 6.25032 12.0784C6.91678 9.37652 7.07889 8.72808 7.07889 8.62C7.07889 8.36783 6.88076 8.16969 6.61057 8.16969C6.03417 8.16969 5.89007 8.80013 5.85405 9.01628Z" fill="black"/>
<path d="M11.4679 0.36025C11.4799 0.336233 11.5159 0.180125 11.5159 0.168117C11.5159 0.108075 11.4679 0 11.3238 0C11.2758 0 10.9035 0.0360262 10.6273 0.0600425L9.95486 0.108075C9.69067 0.132091 9.57059 0.144101 9.57059 0.36025C9.57059 0.528366 9.73871 0.528366 9.88281 0.528366C10.4592 0.528366 10.4592 0.600416 10.4592 0.708491C10.4592 0.780541 10.3391 1.26087 10.2671 1.53706L9.22235 5.71595C9.12628 6.12423 9.12628 6.30436 9.12628 6.5085C9.12628 7.74536 9.88281 8.45384 10.8074 8.45384C12.2845 8.45384 13.8215 6.74867 13.8215 5.00746C13.8215 3.81864 13.053 3.0381 12.0923 3.0381C11.4199 3.0381 10.9035 3.4704 10.6393 3.69856L11.4679 0.36025ZM10.8074 8.11761C10.3751 8.11761 9.94285 7.78138 9.94285 6.90477C9.94285 6.58055 9.99088 6.28034 10.135 5.70394C10.219 5.3557 10.3031 5.01947 10.3992 4.67123C10.4592 4.45508 10.4592 4.43106 10.6033 4.25094C11.0116 3.74659 11.552 3.37433 12.0563 3.37433C12.6567 3.37433 12.8849 3.96274 12.8849 4.50311C12.8849 4.94742 12.6207 6.23231 12.2605 6.9408C11.9482 7.58925 11.3718 8.11761 10.8074 8.11761Z" fill="black"/>
</svg>
