<svg width="45" height="19" viewBox="0 0 45 19" fill="none" xmlns="http://www.w3.org/2000/svg">
<path d="M6.32237 6.73667C5.98013 6.73667 5.81802 6.73667 5.56585 6.95282C5.45777 7.04288 5.25964 7.31306 5.25964 7.60126C5.25964 7.96151 5.52982 8.17766 5.87206 8.17766C6.30436 8.17766 6.79069 7.81741 6.79069 7.09692C6.79069 6.23232 5.96212 5.56586 4.71926 5.56586C2.35963 5.56586 0 8.14164 0 10.6994C0 12.2665 0.972673 13.6895 2.80994 13.6895C5.25964 13.6895 6.80871 11.7802 6.80871 11.546C6.80871 11.4379 6.70063 11.3479 6.62858 11.3479C6.57454 11.3479 6.55653 11.3659 6.39442 11.528C5.24162 13.059 3.53044 13.3292 2.84597 13.3292C1.60311 13.3292 1.20683 12.2485 1.20683 11.3479C1.20683 10.7174 1.51305 8.97021 2.16149 7.74536C2.62982 6.89878 3.60249 5.92611 4.73727 5.92611C4.97144 5.92611 5.96212 5.96213 6.32237 6.73667Z" fill="black"/>
<path d="M15.0837 8.55592C15.0837 6.84474 13.967 5.56586 12.3278 5.56586C9.95019 5.56586 7.60857 8.15965 7.60857 10.6994C7.60857 12.4106 8.72534 13.6895 10.3645 13.6895C12.7601 13.6895 15.0837 11.0957 15.0837 8.55592ZM10.3825 13.3292C9.48186 13.3292 8.8154 12.6087 8.8154 11.3479C8.8154 10.5193 9.2477 8.68201 9.75205 7.78139C10.5626 6.39443 11.5713 5.92611 12.3098 5.92611C13.1924 5.92611 13.8769 6.6466 13.8769 7.90748C13.8769 8.62797 13.4986 10.5553 12.8142 11.6541C12.0757 12.8609 11.085 13.3292 10.3825 13.3292Z" fill="black"/>
<path d="M19.4556 9.90686C19.7618 9.9609 20.2481 10.069 20.3562 10.087C20.5904 10.159 21.4009 10.4472 21.4009 11.3118C21.4009 11.8702 20.8966 13.3292 18.8071 13.3292C18.4289 13.3292 17.0779 13.2752 16.7177 12.2845C17.4382 12.3746 17.7984 11.8162 17.7984 11.4199C17.7984 11.0416 17.5463 10.8435 17.186 10.8435C16.7897 10.8435 16.2674 11.1497 16.2674 11.9603C16.2674 13.023 17.3481 13.6895 18.7891 13.6895C21.527 13.6895 22.3376 11.6721 22.3376 10.7354C22.3376 10.4652 22.3376 9.9609 21.7612 9.3845C21.3109 8.9522 20.8786 8.86214 19.9059 8.664C19.4196 8.55592 18.645 8.39381 18.645 7.58325C18.645 7.223 18.9692 5.92611 20.6804 5.92611C21.4369 5.92611 22.1755 6.21431 22.3556 6.86275C21.563 6.86275 21.527 7.54723 21.527 7.56524C21.527 7.9435 21.8692 8.05158 22.0314 8.05158C22.2835 8.05158 22.7879 7.85344 22.7879 7.09692C22.7879 6.34039 22.1034 5.56586 20.6984 5.56586C18.3388 5.56586 17.7084 7.42114 17.7084 8.15965C17.7084 9.5286 19.0413 9.8168 19.4556 9.90686Z" fill="black"/>
<path d="M29.5106 17.8864C29.5106 17.8323 29.5106 17.7963 29.2043 17.4901C27.4031 15.6708 26.3944 12.6988 26.3944 9.02424C26.3944 5.52982 27.241 2.52174 29.3304 0.396274C29.5106 0.234161 29.5106 0.198137 29.5106 0.144099C29.5106 0.0360246 29.4205 0 29.3484 0C29.1143 0 27.6373 1.2969 26.7546 3.06212C25.836 4.88137 25.4217 6.80871 25.4217 9.02424C25.4217 10.6273 25.6739 12.7708 26.6105 14.6982C27.6733 16.8597 29.1503 18.0305 29.3484 18.0305C29.4205 18.0305 29.5106 17.9944 29.5106 17.8864Z" fill="black"/>
<path d="M35.9371 11.3659C35.847 11.6721 35.847 11.7081 35.5949 12.0503C35.1986 12.5547 34.406 13.3292 33.5594 13.3292C32.8209 13.3292 32.4066 12.6628 32.4066 11.6C32.4066 10.6093 32.965 8.59195 33.3073 7.83543C33.9197 6.57455 34.7663 5.92611 35.4688 5.92611C36.6576 5.92611 36.8918 7.40313 36.8918 7.54723C36.8918 7.56524 36.8377 7.7994 36.8197 7.83543L35.9371 11.3659ZM37.0899 6.75468C36.8918 6.28636 36.4054 5.56586 35.4688 5.56586C33.4334 5.56586 31.2358 8.19567 31.2358 10.8615C31.2358 12.6448 32.2806 13.6895 33.5054 13.6895C34.4961 13.6895 35.3427 12.9149 35.847 12.3205C36.0272 13.3833 36.8737 13.6895 37.4141 13.6895C37.9545 13.6895 38.3868 13.3652 38.711 12.7168C38.9992 12.1044 39.2514 11.0056 39.2514 10.9336C39.2514 10.8435 39.1793 10.7715 39.0713 10.7715C38.9091 10.7715 38.8911 10.8615 38.8191 11.1317C38.5489 12.1944 38.2067 13.3292 37.4681 13.3292C36.9458 13.3292 36.9098 12.8609 36.9098 12.5007C36.9098 12.0864 36.9638 11.8882 37.1259 11.1857C37.252 10.7354 37.3421 10.3392 37.4862 9.8168C38.1526 7.11493 38.3147 6.46648 38.3147 6.3584C38.3147 6.10623 38.1166 5.90809 37.8464 5.90809C37.27 5.90809 37.1259 6.53853 37.0899 6.75468Z" fill="black"/>
<path d="M44.8532 9.02424C44.8532 7.65529 44.6731 5.42175 43.6644 3.3323C42.6017 1.17081 41.1247 0 40.9265 0C40.8545 0 40.7644 0.0360246 40.7644 0.144099C40.7644 0.198137 40.7644 0.234162 41.0706 0.540374C42.8719 2.35963 43.8806 5.33169 43.8806 9.00623C43.8806 12.5006 43.034 15.5087 40.9445 17.6342C40.7644 17.7963 40.7644 17.8323 40.7644 17.8864C40.7644 17.9944 40.8545 18.0305 40.9265 18.0305C41.1607 18.0305 42.6377 16.7336 43.5203 14.9684C44.439 13.1311 44.8532 11.1857 44.8532 9.02424Z" fill="black"/>
</svg>
