<svg width="69" height="19" viewBox="0 0 69 19" fill="none" xmlns="http://www.w3.org/2000/svg">
<path d="M6.32237 6.73667C5.98013 6.73667 5.81802 6.73667 5.56585 6.95282C5.45777 7.04288 5.25964 7.31306 5.25964 7.60126C5.25964 7.96151 5.52982 8.17766 5.87206 8.17766C6.30436 8.17766 6.79069 7.81741 6.79069 7.09692C6.79069 6.23232 5.96212 5.56586 4.71926 5.56586C2.35963 5.56586 0 8.14164 0 10.6994C0 12.2665 0.972673 13.6895 2.80994 13.6895C5.25964 13.6895 6.80871 11.7802 6.80871 11.546C6.80871 11.4379 6.70063 11.3479 6.62858 11.3479C6.57454 11.3479 6.55653 11.3659 6.39442 11.528C5.24162 13.059 3.53044 13.3292 2.84597 13.3292C1.60311 13.3292 1.20683 12.2485 1.20683 11.3479C1.20683 10.7174 1.51305 8.97021 2.16149 7.74536C2.62982 6.89878 3.60249 5.92611 4.73727 5.92611C4.97144 5.92611 5.96212 5.96213 6.32237 6.73667Z" fill="black"/>
<path d="M15.0837 8.55592C15.0837 6.84474 13.967 5.56586 12.3278 5.56586C9.95019 5.56586 7.60857 8.15965 7.60857 10.6994C7.60857 12.4106 8.72534 13.6895 10.3645 13.6895C12.7601 13.6895 15.0837 11.0957 15.0837 8.55592ZM10.3825 13.3292C9.48186 13.3292 8.8154 12.6087 8.8154 11.3479C8.8154 10.5193 9.2477 8.68201 9.75205 7.78139C10.5626 6.39443 11.5713 5.92611 12.3098 5.92611C13.1924 5.92611 13.8769 6.6466 13.8769 7.90748C13.8769 8.62797 13.4986 10.5553 12.8142 11.6541C12.0757 12.8609 11.085 13.3292 10.3825 13.3292Z" fill="black"/>
<path d="M19.4556 9.90686C19.7618 9.9609 20.2481 10.069 20.3562 10.087C20.5904 10.159 21.4009 10.4472 21.4009 11.3118C21.4009 11.8702 20.8966 13.3292 18.8071 13.3292C18.4289 13.3292 17.0779 13.2752 16.7177 12.2845C17.4382 12.3746 17.7984 11.8162 17.7984 11.4199C17.7984 11.0416 17.5463 10.8435 17.186 10.8435C16.7897 10.8435 16.2674 11.1497 16.2674 11.9603C16.2674 13.023 17.3481 13.6895 18.7891 13.6895C21.527 13.6895 22.3376 11.6721 22.3376 10.7354C22.3376 10.4652 22.3376 9.9609 21.7612 9.3845C21.3109 8.9522 20.8786 8.86214 19.9059 8.664C19.4196 8.55592 18.645 8.39381 18.645 7.58325C18.645 7.223 18.9692 5.92611 20.6804 5.92611C21.4369 5.92611 22.1755 6.21431 22.3556 6.86275C21.563 6.86275 21.527 7.54723 21.527 7.56524C21.527 7.9435 21.8692 8.05158 22.0314 8.05158C22.2835 8.05158 22.7879 7.85344 22.7879 7.09692C22.7879 6.34039 22.1034 5.56586 20.6984 5.56586C18.3388 5.56586 17.7084 7.42114 17.7084 8.15965C17.7084 9.5286 19.0413 9.8168 19.4556 9.90686Z" fill="black"/>
<path d="M27.7633 9.90686C28.0696 9.9609 28.5559 10.069 28.664 10.087C28.8981 10.159 29.7087 10.4472 29.7087 11.3118C29.7087 11.8702 29.2043 13.3292 27.1149 13.3292C26.7366 13.3292 25.3857 13.2752 25.0255 12.2845C25.746 12.3746 26.1062 11.8162 26.1062 11.4199C26.1062 11.0416 25.854 10.8435 25.4938 10.8435C25.0975 10.8435 24.5751 11.1497 24.5751 11.9603C24.5751 13.023 25.6559 13.6895 27.0969 13.6895C29.8348 13.6895 30.6453 11.6721 30.6453 10.7354C30.6453 10.4652 30.6453 9.9609 30.0689 9.3845C29.6186 8.9522 29.1863 8.86214 28.2137 8.664C27.7273 8.55592 26.9528 8.39381 26.9528 7.58325C26.9528 7.223 27.277 5.92611 28.9882 5.92611C29.7447 5.92611 30.4832 6.21431 30.6634 6.86275C29.8708 6.86275 29.8348 7.54723 29.8348 7.56524C29.8348 7.9435 30.177 8.05158 30.3391 8.05158C30.5913 8.05158 31.0956 7.85344 31.0956 7.09692C31.0956 6.34039 30.4112 5.56586 29.0062 5.56586C26.6466 5.56586 26.0161 7.42114 26.0161 8.15965C26.0161 9.5286 27.3491 9.8168 27.7633 9.90686Z" fill="black"/>
<path d="M35.1885 9.33046C35.6748 9.33046 36.8997 9.29444 37.7643 8.97021C39.1332 8.44785 39.2593 7.40313 39.2593 7.0789C39.2593 6.28636 38.5749 5.56586 37.386 5.56586C35.4947 5.56586 32.7748 7.27704 32.7748 10.4833C32.7748 12.3746 33.8556 13.6895 35.4947 13.6895C37.9444 13.6895 39.4935 11.7802 39.4935 11.546C39.4935 11.4379 39.3854 11.3479 39.3134 11.3479C39.2593 11.3479 39.2413 11.3659 39.0792 11.528C37.9264 13.059 36.2152 13.3292 35.5307 13.3292C34.504 13.3292 33.9637 12.5187 33.9637 11.1857C33.9637 10.9336 33.9637 10.4833 34.2338 9.33046H35.1885ZM34.3239 8.97021C35.0984 6.19629 36.8096 5.92611 37.386 5.92611C38.1786 5.92611 38.719 6.39443 38.719 7.0789C38.719 8.97021 35.837 8.97021 35.0804 8.97021H34.3239Z" fill="black"/>
<path d="M47.1815 6.73667C46.8392 6.73667 46.6771 6.73667 46.425 6.95282C46.3169 7.04288 46.1187 7.31306 46.1187 7.60126C46.1187 7.96151 46.3889 8.17766 46.7312 8.17766C47.1635 8.17766 47.6498 7.81741 47.6498 7.09692C47.6498 6.23232 46.8212 5.56586 45.5784 5.56586C43.2187 5.56586 40.8591 8.14164 40.8591 10.6994C40.8591 12.2665 41.8318 13.6895 43.6691 13.6895C46.1187 13.6895 47.6678 11.7802 47.6678 11.546C47.6678 11.4379 47.5597 11.3479 47.4877 11.3479C47.4337 11.3479 47.4156 11.3659 47.2535 11.528C46.1007 13.059 44.3895 13.3292 43.7051 13.3292C42.4622 13.3292 42.0659 12.2485 42.0659 11.3479C42.0659 10.7174 42.3722 8.97021 43.0206 7.74536C43.4889 6.89878 44.4616 5.92611 45.5964 5.92611C45.8305 5.92611 46.8212 5.96213 47.1815 6.73667Z" fill="black"/>
<path d="M53.5832 17.8864C53.5832 17.8323 53.5832 17.7963 53.277 17.4901C51.4758 15.6708 50.4671 12.6988 50.4671 9.02424C50.4671 5.52982 51.3137 2.52174 53.4031 0.396274C53.5832 0.234161 53.5832 0.198137 53.5832 0.144099C53.5832 0.0360246 53.4932 0 53.4211 0C53.1869 0 51.7099 1.2969 50.8273 3.06212C49.9087 4.88137 49.4944 6.80871 49.4944 9.02424C49.4944 10.6273 49.7466 12.7708 50.6832 14.6982C51.7459 16.8597 53.223 18.0305 53.4211 18.0305C53.4932 18.0305 53.5832 17.9944 53.5832 17.8864Z" fill="black"/>
<path d="M60.0097 11.3659C59.9197 11.6721 59.9197 11.7081 59.6675 12.0503C59.2712 12.5547 58.4787 13.3292 57.6321 13.3292C56.8936 13.3292 56.4793 12.6628 56.4793 11.6C56.4793 10.6093 57.0377 8.59195 57.3799 7.83543C57.9924 6.57455 58.8389 5.92611 59.5414 5.92611C60.7302 5.92611 60.9644 7.40313 60.9644 7.54723C60.9644 7.56524 60.9104 7.7994 60.8924 7.83543L60.0097 11.3659ZM61.1625 6.75468C60.9644 6.28636 60.4781 5.56586 59.5414 5.56586C57.506 5.56586 55.3085 8.19567 55.3085 10.8615C55.3085 12.6448 56.3532 13.6895 57.5781 13.6895C58.5687 13.6895 59.4153 12.9149 59.9197 12.3205C60.0998 13.3833 60.9464 13.6895 61.4868 13.6895C62.0271 13.6895 62.4594 13.3652 62.7837 12.7168C63.0719 12.1044 63.324 11.0056 63.324 10.9336C63.324 10.8435 63.252 10.7715 63.1439 10.7715C62.9818 10.7715 62.9638 10.8615 62.8917 11.1317C62.6216 12.1944 62.2793 13.3292 61.5408 13.3292C61.0184 13.3292 60.9824 12.8609 60.9824 12.5007C60.9824 12.0864 61.0365 11.8882 61.1986 11.1857C61.3247 10.7354 61.4147 10.3392 61.5588 9.8168C62.2253 7.11493 62.3874 6.46648 62.3874 6.3584C62.3874 6.10623 62.1893 5.90809 61.9191 5.90809C61.3427 5.90809 61.1986 6.53853 61.1625 6.75468Z" fill="black"/>
<path d="M68.9259 9.02424C68.9259 7.65529 68.7458 5.42175 67.7371 3.3323C66.6743 1.17081 65.1973 0 64.9992 0C64.9271 0 64.8371 0.0360246 64.8371 0.144099C64.8371 0.198137 64.8371 0.234162 65.1433 0.540374C66.9445 2.35963 67.9532 5.33169 67.9532 9.00623C67.9532 12.5006 67.1066 15.5087 65.0172 17.6342C64.8371 17.7963 64.8371 17.8323 64.8371 17.8864C64.8371 17.9944 64.9271 18.0305 64.9992 18.0305C65.2333 18.0305 66.7104 16.7336 67.593 14.9684C68.5116 13.1311 68.9259 11.1857 68.9259 9.02424Z" fill="black"/>
</svg>
