<svg width="63" height="19" viewBox="0 0 63 19" fill="none" xmlns="http://www.w3.org/2000/svg">
<path d="M6.32237 6.73667C5.98013 6.73667 5.81802 6.73667 5.56585 6.95282C5.45777 7.04288 5.25964 7.31306 5.25964 7.60126C5.25964 7.96151 5.52982 8.17766 5.87206 8.17766C6.30436 8.17766 6.79069 7.81741 6.79069 7.09692C6.79069 6.23232 5.96212 5.56586 4.71926 5.56586C2.35963 5.56586 0 8.14164 0 10.6994C0 12.2665 0.972673 13.6895 2.80994 13.6895C5.25964 13.6895 6.80871 11.7802 6.80871 11.546C6.80871 11.4379 6.70063 11.3479 6.62858 11.3479C6.57454 11.3479 6.55653 11.3659 6.39442 11.528C5.24162 13.059 3.53044 13.3292 2.84597 13.3292C1.60311 13.3292 1.20683 12.2485 1.20683 11.3479C1.20683 10.7174 1.51305 8.97021 2.16149 7.74536C2.62982 6.89878 3.60249 5.92611 4.73727 5.92611C4.97144 5.92611 5.96212 5.96213 6.32237 6.73667Z" fill="black"/>
<path d="M15.0837 8.55592C15.0837 6.84474 13.967 5.56586 12.3278 5.56586C9.95019 5.56586 7.60857 8.15965 7.60857 10.6994C7.60857 12.4106 8.72534 13.6895 10.3645 13.6895C12.7601 13.6895 15.0837 11.0957 15.0837 8.55592ZM10.3825 13.3292C9.48186 13.3292 8.8154 12.6087 8.8154 11.3479C8.8154 10.5193 9.2477 8.68201 9.75205 7.78139C10.5626 6.39443 11.5713 5.92611 12.3098 5.92611C13.1924 5.92611 13.8769 6.6466 13.8769 7.90748C13.8769 8.62797 13.4986 10.5553 12.8142 11.6541C12.0757 12.8609 11.085 13.3292 10.3825 13.3292Z" fill="black"/>
<path d="M18.9692 6.26833H20.6264C20.9686 6.26833 21.1487 6.26833 21.1487 5.94411C21.1487 5.74597 21.0407 5.74597 20.6804 5.74597H19.0953L19.7618 3.11615C19.8338 2.86398 19.8338 2.82795 19.8338 2.70187C19.8338 2.41367 19.5997 2.25156 19.3655 2.25156C19.2214 2.25156 18.8071 2.30559 18.663 2.88199L17.9605 5.74597H16.2674C15.9071 5.74597 15.745 5.74597 15.745 6.08821C15.745 6.26833 15.8711 6.26833 16.2133 6.26833H17.8164L16.6276 11.0236C16.4835 11.6541 16.4295 11.8342 16.4295 12.0683C16.4295 12.9149 17.0239 13.6895 18.0326 13.6895C19.8518 13.6895 20.8245 11.0596 20.8245 10.9336C20.8245 10.8255 20.7525 10.7714 20.6444 10.7714C20.6084 10.7714 20.5363 10.7714 20.5003 10.8435C20.4823 10.8615 20.4643 10.8795 20.3382 11.1677C19.9599 12.0683 19.1313 13.3292 18.0866 13.3292C17.5462 13.3292 17.5102 12.8789 17.5102 12.4826C17.5102 12.4646 17.5102 12.1224 17.5643 11.9062L18.9692 6.26833Z" fill="black"/>
<path d="M27.1394 11.3659C27.0493 11.6721 27.0493 11.7081 26.7972 12.0503C26.4009 12.5547 25.6083 13.3292 24.7617 13.3292C24.0232 13.3292 23.609 12.6628 23.609 11.6C23.609 10.6093 24.1673 8.59195 24.5096 7.83543C25.122 6.57455 25.9686 5.92611 26.6711 5.92611C27.8599 5.92611 28.0941 7.40313 28.0941 7.54723C28.0941 7.56524 28.04 7.7994 28.022 7.83543L27.1394 11.3659ZM28.2922 6.75468C28.0941 6.28636 27.6077 5.56586 26.6711 5.56586C24.6357 5.56586 22.4381 8.19567 22.4381 10.8615C22.4381 12.6448 23.4829 13.6895 24.7077 13.6895C25.6984 13.6895 26.545 12.9149 27.0493 12.3205C27.2295 13.3833 28.076 13.6895 28.6164 13.6895C29.1568 13.6895 29.5891 13.3652 29.9133 12.7168C30.2015 12.1044 30.4537 11.0056 30.4537 10.9336C30.4537 10.8435 30.3816 10.7715 30.2736 10.7715C30.1114 10.7715 30.0934 10.8615 30.0214 11.1317C29.7512 12.1944 29.409 13.3292 28.6704 13.3292C28.1481 13.3292 28.1121 12.8609 28.1121 12.5007C28.1121 12.0864 28.1661 11.8882 28.3282 11.1857C28.4543 10.7354 28.5444 10.3392 28.6885 9.8168C29.3549 7.11493 29.517 6.46648 29.517 6.3584C29.517 6.10623 29.3189 5.90809 29.0487 5.90809C28.4723 5.90809 28.3282 6.53853 28.2922 6.75468Z" fill="black"/>
<path d="M34.6866 8.2317C34.7226 8.12363 35.1729 7.223 35.8394 6.6466C36.3077 6.21431 36.9201 5.92611 37.6226 5.92611C38.3431 5.92611 38.5953 6.46648 38.5953 7.18698C38.5953 8.21369 37.8568 10.2671 37.4965 11.2398C37.3344 11.6721 37.2444 11.9062 37.2444 12.2305C37.2444 13.041 37.8028 13.6895 38.6674 13.6895C40.3425 13.6895 40.9729 11.0416 40.9729 10.9336C40.9729 10.8435 40.9009 10.7715 40.7928 10.7715C40.6307 10.7715 40.6127 10.8255 40.5226 11.1317C40.1083 12.6087 39.4239 13.3292 38.7214 13.3292C38.5413 13.3292 38.2531 13.3112 38.2531 12.7348C38.2531 12.2845 38.4512 11.7441 38.5593 11.492C38.9195 10.5013 39.676 8.48387 39.676 7.45717C39.676 6.37642 39.0456 5.56586 37.6767 5.56586C36.0736 5.56586 35.227 6.70064 34.9028 7.15095C34.8487 6.12424 34.1102 5.56586 33.3177 5.56586C32.7413 5.56586 32.345 5.90809 32.0388 6.52052C31.7145 7.16897 31.4624 8.24971 31.4624 8.32176C31.4624 8.39381 31.5344 8.48387 31.6605 8.48387C31.8046 8.48387 31.8226 8.46586 31.9307 8.05158C32.2189 6.95282 32.5431 5.92611 33.2636 5.92611C33.6779 5.92611 33.822 6.21431 33.822 6.75468C33.822 7.15095 33.6419 7.85344 33.5158 8.41182L33.0114 10.3572C32.9394 10.6994 32.7413 11.51 32.6512 11.8342C32.5251 12.3025 32.327 13.1491 32.327 13.2392C32.327 13.4913 32.5251 13.6895 32.7953 13.6895C33.0114 13.6895 33.2636 13.5814 33.4077 13.3112C33.4437 13.2211 33.6059 12.5907 33.6959 12.2305L34.0922 10.6093L34.6866 8.2317Z" fill="black"/>
<path d="M47.3581 17.8864C47.3581 17.8323 47.3581 17.7963 47.0519 17.4901C45.2506 15.6708 44.2419 12.6988 44.2419 9.02424C44.2419 5.52982 45.0885 2.52174 47.178 0.396274C47.3581 0.234161 47.3581 0.198137 47.3581 0.144099C47.3581 0.0360246 47.268 0 47.196 0C46.9618 0 45.4848 1.2969 44.6022 3.06212C43.6835 4.88137 43.2693 6.80871 43.2693 9.02424C43.2693 10.6273 43.5214 12.7708 44.4581 14.6982C45.5208 16.8597 46.9978 18.0305 47.196 18.0305C47.268 18.0305 47.3581 17.9944 47.3581 17.8864Z" fill="black"/>
<path d="M53.7846 11.3659C53.6946 11.6721 53.6946 11.7081 53.4424 12.0503C53.0461 12.5547 52.2536 13.3292 51.407 13.3292C50.6685 13.3292 50.2542 12.6628 50.2542 11.6C50.2542 10.6093 50.8126 8.59195 51.1548 7.83543C51.7672 6.57455 52.6138 5.92611 53.3163 5.92611C54.5051 5.92611 54.7393 7.40313 54.7393 7.54723C54.7393 7.56524 54.6852 7.7994 54.6672 7.83543L53.7846 11.3659ZM54.9374 6.75468C54.7393 6.28636 54.2529 5.56586 53.3163 5.56586C51.2809 5.56586 49.0834 8.19567 49.0834 10.8615C49.0834 12.6448 50.1281 13.6895 51.3529 13.6895C52.3436 13.6895 53.1902 12.9149 53.6946 12.3205C53.8747 13.3833 54.7213 13.6895 55.2616 13.6895C55.802 13.6895 56.2343 13.3652 56.5585 12.7168C56.8467 12.1044 57.0989 11.0056 57.0989 10.9336C57.0989 10.8435 57.0269 10.7715 56.9188 10.7715C56.7567 10.7715 56.7387 10.8615 56.6666 11.1317C56.3964 12.1944 56.0542 13.3292 55.3157 13.3292C54.7933 13.3292 54.7573 12.8609 54.7573 12.5007C54.7573 12.0864 54.8113 11.8882 54.9734 11.1857C55.0995 10.7354 55.1896 10.3392 55.3337 9.8168C56.0002 7.11493 56.1623 6.46648 56.1623 6.3584C56.1623 6.10623 55.9641 5.90809 55.6939 5.90809C55.1175 5.90809 54.9734 6.53853 54.9374 6.75468Z" fill="black"/>
<path d="M62.7008 9.02424C62.7008 7.65529 62.5206 5.42175 61.5119 3.3323C60.4492 1.17081 58.9722 0 58.7741 0C58.702 0 58.6119 0.0360246 58.6119 0.144099C58.6119 0.198137 58.6119 0.234162 58.9182 0.540374C60.7194 2.35963 61.7281 5.33169 61.7281 9.00623C61.7281 12.5006 60.8815 15.5087 58.7921 17.6342C58.6119 17.7963 58.6119 17.8323 58.6119 17.8864C58.6119 17.9944 58.702 18.0305 58.7741 18.0305C59.0082 18.0305 60.4852 16.7336 61.3678 14.9684C62.2865 13.1311 62.7008 11.1857 62.7008 9.02424Z" fill="black"/>
</svg>
