<svg width="10" height="33" viewBox="0 0 10 33" fill="none" xmlns="http://www.w3.org/2000/svg">
<path d="M5.42175 5.80001C5.33169 6.10622 5.33169 6.14225 5.07951 6.48448C4.68324 6.98883 3.89069 7.76337 3.0441 7.76337C2.30559 7.76337 1.89131 7.09691 1.89131 6.03417C1.89131 5.04349 2.44969 3.02609 2.79193 2.26957C3.40435 1.0087 4.25094 0.360249 4.95342 0.360249C6.14225 0.360249 6.37641 1.83727 6.37641 1.98137C6.37641 1.99938 6.32237 2.23354 6.30436 2.26957L5.42175 5.80001ZM6.57454 1.18882C6.37641 0.720499 5.89007 0 4.95342 0C2.91802 0 0.720497 2.62982 0.720497 5.29566C0.720497 7.07889 1.76522 8.12362 2.99007 8.12362C3.98075 8.12362 4.82734 7.34908 5.33169 6.75467C5.51181 7.8174 6.35839 8.12362 6.89877 8.12362C7.43914 8.12362 7.87144 7.79939 8.19566 7.15094C8.48386 6.53852 8.73604 5.43976 8.73604 5.36771C8.73604 5.27765 8.66399 5.2056 8.55591 5.2056C8.3938 5.2056 8.37579 5.29566 8.30374 5.56585C8.03355 6.62858 7.69132 7.76337 6.95281 7.76337C6.43044 7.76337 6.39442 7.29504 6.39442 6.9348C6.39442 6.52051 6.44846 6.32237 6.61057 5.61988C6.73666 5.16957 6.82672 4.7733 6.97082 4.25094C7.63728 1.54907 7.79939 0.900622 7.79939 0.792548C7.79939 0.540374 7.60125 0.342236 7.33107 0.342236C6.75467 0.342236 6.61057 0.972672 6.57454 1.18882Z" fill="black"/>
<path d="M9.25838 15.2657H0V15.9862H9.25838V15.2657Z" fill="black"/>
<path d="M5.04066 20.4344C5.05867 20.3623 5.0947 20.2543 5.0947 20.1642C5.0947 19.9841 4.91458 19.9841 4.87855 19.9841C4.86054 19.9841 4.21209 20.0381 3.88786 20.0741C3.58165 20.0921 3.31147 20.1282 2.98724 20.1462C2.55494 20.1822 2.42886 20.2002 2.42886 20.5244C2.42886 20.7046 2.60898 20.7046 2.78911 20.7046C3.70774 20.7046 3.70774 20.8667 3.70774 21.0468C3.70774 21.1729 3.56364 21.6952 3.49159 22.0195L3.05929 23.7487C2.87917 24.4692 1.85246 28.558 1.78041 28.8822C1.69035 29.3325 1.69035 29.6387 1.69035 29.8729C1.69035 31.7102 2.71705 32.6648 3.88786 32.6648C5.97731 32.6648 8.1388 29.981 8.1388 27.3692C8.1388 25.712 7.20216 24.5412 5.85122 24.5412C4.91458 24.5412 4.06799 25.3157 3.72575 25.676L5.04066 20.4344ZM3.90588 32.3046C3.32948 32.3046 2.69904 31.8723 2.69904 30.4673C2.69904 29.8729 2.75308 29.5307 3.0773 28.2698C3.13134 28.0356 3.41954 26.8828 3.49159 26.6487C3.52762 26.5046 4.59035 24.9015 5.8152 24.9015C6.60774 24.9015 6.96799 25.694 6.96799 26.6307C6.96799 27.4953 6.46365 29.5307 6.01333 30.4673C5.56302 31.44 4.73445 32.3046 3.90588 32.3046Z" fill="black"/>
</svg>
