<svg width="41" height="17" viewBox="0 0 41 17" fill="none" xmlns="http://www.w3.org/2000/svg">
<path d="M2.50373 0L0 0.198139V0.720499C1.22485 0.720499 1.36895 0.846586 1.36895 1.7292V11.1677C1.36895 11.9783 1.17081 11.9783 0 11.9783V12.5006C0.504348 12.4646 1.38696 12.4646 1.92733 12.4646C2.46771 12.4646 3.36833 12.4646 3.87268 12.5006V11.9783C2.71988 11.9783 2.50373 11.9783 2.50373 11.1677V0Z" fill="black"/>
<path d="M12.5725 8.64598C12.5725 6.32237 10.8072 4.46709 8.7178 4.46709C6.55631 4.46709 4.84512 6.37641 4.84512 8.64598C4.84512 10.9516 6.64637 12.6808 8.69979 12.6808C10.8253 12.6808 12.5725 10.9155 12.5725 8.64598ZM8.7178 12.2845C8.05134 12.2845 7.24078 11.9963 6.71842 11.1137C6.23208 10.3031 6.21407 9.24039 6.21407 8.48386C6.21407 7.79939 6.21407 6.70063 6.77246 5.89007C7.27681 5.11554 8.06935 4.82734 8.69979 4.82734C9.40228 4.82734 10.1588 5.15156 10.6451 5.85405C11.2035 6.68262 11.2035 7.8174 11.2035 8.48386C11.2035 9.1143 11.2035 10.2311 10.7352 11.0777C10.2308 11.9423 9.40228 12.2845 8.7178 12.2845Z" fill="black"/>
<path d="M15.2667 9.24038C16.1133 9.79877 16.8338 9.79877 17.032 9.79877C18.6531 9.79877 19.8599 8.57392 19.8599 7.18696C19.8599 6.70063 19.7158 6.01615 19.1394 5.43976C19.8419 4.71926 20.6885 4.71926 20.7785 4.71926C20.8506 4.71926 20.9407 4.71926 21.0127 4.75528C20.8326 4.82733 20.7425 5.00746 20.7425 5.20559C20.7425 5.45777 20.9226 5.67392 21.2108 5.67392C21.3549 5.67392 21.6792 5.58386 21.6792 5.18758C21.6792 4.86336 21.427 4.35901 20.7966 4.35901C19.8599 4.35901 19.1574 4.93541 18.9052 5.20559C18.3649 4.79131 17.7344 4.55715 17.05 4.55715C15.4288 4.55715 14.222 5.78199 14.222 7.16895C14.222 8.19566 14.8524 8.86212 15.0326 9.02424C14.8164 9.29442 14.4922 9.81678 14.4922 10.5193C14.4922 11.564 15.1226 12.0143 15.2667 12.1044C14.4382 12.3385 13.6096 12.987 13.6096 13.9236C13.6096 15.1665 15.3028 16.1932 17.5183 16.1932C19.6618 16.1932 21.445 15.2385 21.445 13.8876C21.445 13.4373 21.3189 12.3746 20.2382 11.8162C19.3195 11.3478 18.4189 11.3478 16.8698 11.3478C15.7711 11.3478 15.645 11.3478 15.3208 11.0056C15.1406 10.8255 14.9785 10.4832 14.9785 10.105C14.9785 9.79877 15.0866 9.49256 15.2667 9.24038ZM17.05 9.42051C15.4649 9.42051 15.4649 7.60125 15.4649 7.18696C15.4649 6.86274 15.4649 6.12423 15.7711 5.63789C16.1133 5.11553 16.6537 4.93541 17.032 4.93541C18.617 4.93541 18.6171 6.75467 18.6171 7.16895C18.6171 7.49318 18.6171 8.23169 18.3108 8.71802C17.9686 9.24038 17.4282 9.42051 17.05 9.42051ZM17.5363 15.8149C15.8071 15.8149 14.4922 14.9323 14.4922 13.9056C14.4922 13.7615 14.5282 13.059 15.2127 12.5907C15.609 12.3385 15.7711 12.3385 17.032 12.3385C18.527 12.3385 20.5624 12.3385 20.5624 13.9056C20.5624 14.9683 19.1934 15.8149 17.5363 15.8149Z" fill="black"/>
<path d="M25.1168 8.78004C25.1288 8.75602 25.1648 8.59992 25.1648 8.58791C25.1648 8.52787 25.1168 8.41979 24.9727 8.41979C24.9246 8.41979 24.5524 8.45582 24.2762 8.47983L23.6037 8.52787C23.3395 8.55188 23.2194 8.56389 23.2194 8.78004C23.2194 8.94816 23.3876 8.94816 23.5317 8.94816C24.1081 8.94816 24.1081 9.02021 24.1081 9.12828C24.1081 9.20033 23.988 9.68066 23.9159 9.95686L22.8712 14.1357C22.7751 14.544 22.7751 14.7242 22.7751 14.9283C22.7751 16.1651 23.5317 16.8736 24.4563 16.8736C25.9333 16.8736 27.4704 15.1685 27.4704 13.4273C27.4704 12.2384 26.7018 11.4579 25.7412 11.4579C25.0687 11.4579 24.5524 11.8902 24.2882 12.1184L25.1168 8.78004ZM24.4563 16.5374C24.024 16.5374 23.5917 16.2012 23.5917 15.3246C23.5917 15.0003 23.6397 14.7001 23.7838 14.1237C23.8679 13.7755 23.9519 13.4393 24.048 13.091C24.1081 12.8749 24.1081 12.8509 24.2522 12.6707C24.6604 12.1664 25.2008 11.7941 25.7052 11.7941C26.3056 11.7941 26.5337 12.3825 26.5337 12.9229C26.5337 13.3672 26.2695 14.6521 25.9093 15.3606C25.5971 16.009 25.0207 16.5374 24.4563 16.5374Z" fill="black"/>
<path d="M36.819 10.3572C36.729 10.6634 36.729 10.6994 36.4768 11.0416C36.0805 11.546 35.288 12.3205 34.4414 12.3205C33.7029 12.3205 33.2886 11.6541 33.2886 10.5913C33.2886 9.60064 33.847 7.58324 34.1892 6.82672C34.8017 5.56585 35.6482 4.9174 36.3507 4.9174C37.5395 4.9174 37.7737 6.39442 37.7737 6.53852C37.7737 6.55653 37.7197 6.7907 37.7017 6.82672L36.819 10.3572ZM37.9718 5.74597C37.7737 5.27765 37.2874 4.55715 36.3507 4.55715C34.3153 4.55715 32.1178 7.18697 32.1178 9.85281C32.1178 11.636 33.1625 12.6808 34.3874 12.6808C35.3781 12.6808 36.2246 11.9062 36.729 11.3118C36.9091 12.3746 37.7557 12.6808 38.2961 12.6808C38.8364 12.6808 39.2687 12.3565 39.593 11.7081C39.8812 11.0957 40.1333 9.99691 40.1333 9.92486C40.1333 9.8348 40.0613 9.76275 39.9532 9.76275C39.7911 9.76275 39.7731 9.85281 39.701 10.123C39.4309 11.1857 39.0886 12.3205 38.3501 12.3205C37.8277 12.3205 37.7917 11.8522 37.7917 11.4919C37.7917 11.0777 37.8458 10.8795 38.0079 10.177C38.134 9.72673 38.224 9.33045 38.3681 8.80809C39.0346 6.10622 39.1967 5.45777 39.1967 5.3497C39.1967 5.09753 38.9986 4.89939 38.7284 4.89939C38.152 4.89939 38.0079 5.52982 37.9718 5.74597Z" fill="black"/>
</svg>
