<svg width="45" height="19" viewBox="0 0 45 19" fill="none" xmlns="http://www.w3.org/2000/svg">
<path d="M3.1882 9.90686C3.49442 9.9609 3.98075 10.069 4.08883 10.087C4.32299 10.159 5.13355 10.4472 5.13355 11.3118C5.13355 11.8702 4.6292 13.3292 2.53976 13.3292C2.16149 13.3292 0.81056 13.2752 0.450311 12.2845C1.17081 12.3746 1.53106 11.8162 1.53106 11.4199C1.53106 11.0416 1.27888 10.8435 0.918634 10.8435C0.52236 10.8435 0 11.1497 0 11.9603C0 13.023 1.08075 13.6895 2.52174 13.6895C5.25964 13.6895 6.0702 11.6721 6.0702 10.7354C6.0702 10.4652 6.0702 9.9609 5.4938 9.3845C5.04349 8.9522 4.61119 8.86214 3.63852 8.664C3.15218 8.55592 2.37764 8.39381 2.37764 7.58325C2.37764 7.223 2.70187 5.92611 4.41305 5.92611C5.16957 5.92611 5.90808 6.21431 6.08821 6.86275C5.29566 6.86275 5.25964 7.54723 5.25964 7.56524C5.25964 7.9435 5.60187 8.05158 5.76398 8.05158C6.01616 8.05158 6.52051 7.85344 6.52051 7.09692C6.52051 6.34039 5.83603 5.56586 4.43106 5.56586C2.07143 5.56586 1.441 7.42114 1.441 8.15965C1.441 9.5286 2.77392 9.8168 3.1882 9.90686Z" fill="black"/>
<path d="M10.6134 9.33046C11.0997 9.33046 12.3246 9.29444 13.1891 8.97021C14.5581 8.44785 14.6842 7.40313 14.6842 7.0789C14.6842 6.28636 13.9997 5.56586 12.8109 5.56586C10.9196 5.56586 8.1997 7.27704 8.1997 10.4833C8.1997 12.3746 9.28045 13.6895 10.9196 13.6895C13.3693 13.6895 14.9183 11.7802 14.9183 11.546C14.9183 11.4379 14.8103 11.3479 14.7382 11.3479C14.6842 11.3479 14.6662 11.3659 14.5041 11.528C13.3513 13.059 11.6401 13.3292 10.9556 13.3292C9.92889 13.3292 9.38852 12.5187 9.38852 11.1857C9.38852 10.9336 9.38852 10.4833 9.65871 9.33046H10.6134ZM9.74877 8.97021C10.5233 6.19629 12.2345 5.92611 12.8109 5.92611C13.6034 5.92611 14.1438 6.39443 14.1438 7.0789C14.1438 8.97021 11.2618 8.97021 10.5053 8.97021H9.74877Z" fill="black"/>
<path d="M22.6063 6.73667C22.2641 6.73667 22.102 6.73667 21.8498 6.95282C21.7417 7.04288 21.5436 7.31306 21.5436 7.60126C21.5436 7.96151 21.8138 8.17766 22.156 8.17766C22.5883 8.17766 23.0747 7.81741 23.0747 7.09692C23.0747 6.23232 22.2461 5.56586 21.0032 5.56586C18.6436 5.56586 16.284 8.14164 16.284 10.6994C16.284 12.2665 17.2566 13.6895 19.0939 13.6895C21.5436 13.6895 23.0927 11.7802 23.0927 11.546C23.0927 11.4379 22.9846 11.3479 22.9125 11.3479C22.8585 11.3479 22.8405 11.3659 22.6784 11.528C21.5256 13.059 19.8144 13.3292 19.1299 13.3292C17.8871 13.3292 17.4908 12.2485 17.4908 11.3479C17.4908 10.7174 17.797 8.97021 18.4455 7.74536C18.9138 6.89878 19.8864 5.92611 21.0212 5.92611C21.2554 5.92611 22.2461 5.96213 22.6063 6.73667Z" fill="black"/>
<path d="M29.0081 17.8864C29.0081 17.8323 29.0081 17.7963 28.7019 17.4901C26.9006 15.6708 25.8919 12.6988 25.8919 9.02424C25.8919 5.52982 26.7385 2.52174 28.828 0.396274C29.0081 0.234161 29.0081 0.198137 29.0081 0.144099C29.0081 0.0360246 28.918 0 28.846 0C28.6118 0 27.1348 1.2969 26.2522 3.06212C25.3336 4.88137 24.9193 6.80871 24.9193 9.02424C24.9193 10.6273 25.1714 12.7708 26.1081 14.6982C27.1708 16.8597 28.6478 18.0305 28.846 18.0305C28.918 18.0305 29.0081 17.9944 29.0081 17.8864Z" fill="black"/>
<path d="M35.4346 11.3659C35.3446 11.6721 35.3446 11.7081 35.0924 12.0503C34.6961 12.5547 33.9036 13.3292 33.057 13.3292C32.3185 13.3292 31.9042 12.6628 31.9042 11.6C31.9042 10.6093 32.4626 8.59195 32.8048 7.83543C33.4172 6.57455 34.2638 5.92611 34.9663 5.92611C36.1551 5.92611 36.3893 7.40313 36.3893 7.54723C36.3893 7.56524 36.3352 7.7994 36.3172 7.83543L35.4346 11.3659ZM36.5874 6.75468C36.3893 6.28636 35.9029 5.56586 34.9663 5.56586C32.9309 5.56586 30.7334 8.19567 30.7334 10.8615C30.7334 12.6448 31.7781 13.6895 33.0029 13.6895C33.9936 13.6895 34.8402 12.9149 35.3446 12.3205C35.5247 13.3833 36.3713 13.6895 36.9116 13.6895C37.452 13.6895 37.8843 13.3652 38.2085 12.7168C38.4967 12.1044 38.7489 11.0056 38.7489 10.9336C38.7489 10.8435 38.6769 10.7715 38.5688 10.7715C38.4067 10.7715 38.3887 10.8615 38.3166 11.1317C38.0464 12.1944 37.7042 13.3292 36.9657 13.3292C36.4433 13.3292 36.4073 12.8609 36.4073 12.5007C36.4073 12.0864 36.4613 11.8882 36.6234 11.1857C36.7495 10.7354 36.8396 10.3392 36.9837 9.8168C37.6501 7.11493 37.8123 6.46648 37.8123 6.3584C37.8123 6.10623 37.6141 5.90809 37.3439 5.90809C36.7675 5.90809 36.6234 6.53853 36.5874 6.75468Z" fill="black"/>
<path d="M44.3508 9.02424C44.3508 7.65529 44.1707 5.42175 43.162 3.3323C42.0992 1.17081 40.6222 0 40.4241 0C40.352 0 40.2619 0.0360246 40.2619 0.144099C40.2619 0.198137 40.2619 0.234162 40.5682 0.540374C42.3694 2.35963 43.3781 5.33169 43.3781 9.00623C43.3781 12.5006 42.5315 15.5087 40.4421 17.6342C40.2619 17.7963 40.2619 17.8323 40.2619 17.8864C40.2619 17.9944 40.352 18.0305 40.4241 18.0305C40.6582 18.0305 42.1352 16.7336 43.0179 14.9684C43.9365 13.1311 44.3508 11.1857 44.3508 9.02424Z" fill="black"/>
</svg>
