<svg width="48" height="19" viewBox="0 0 48 19" fill="none" xmlns="http://www.w3.org/2000/svg">
<path d="M3.1882 9.90686C3.49442 9.9609 3.98075 10.069 4.08883 10.087C4.32299 10.159 5.13355 10.4472 5.13355 11.3118C5.13355 11.8702 4.6292 13.3292 2.53976 13.3292C2.16149 13.3292 0.81056 13.2752 0.450311 12.2845C1.17081 12.3746 1.53106 11.8162 1.53106 11.4199C1.53106 11.0416 1.27888 10.8435 0.918634 10.8435C0.52236 10.8435 0 11.1497 0 11.9603C0 13.023 1.08075 13.6895 2.52174 13.6895C5.25964 13.6895 6.0702 11.6721 6.0702 10.7354C6.0702 10.4652 6.0702 9.9609 5.4938 9.3845C5.04349 8.9522 4.61119 8.86214 3.63852 8.664C3.15218 8.55592 2.37764 8.39381 2.37764 7.58325C2.37764 7.223 2.70187 5.92611 4.41305 5.92611C5.16957 5.92611 5.90808 6.21431 6.08821 6.86275C5.29566 6.86275 5.25964 7.54723 5.25964 7.56524C5.25964 7.9435 5.60187 8.05158 5.76398 8.05158C6.01616 8.05158 6.52051 7.85344 6.52051 7.09692C6.52051 6.34039 5.83603 5.56586 4.43106 5.56586C2.07143 5.56586 1.441 7.42114 1.441 8.15965C1.441 9.5286 2.77392 9.8168 3.1882 9.90686Z" fill="black"/>
<path d="M10.6134 9.33046C11.0997 9.33046 12.3246 9.29444 13.1891 8.97021C14.5581 8.44785 14.6842 7.40313 14.6842 7.0789C14.6842 6.28636 13.9997 5.56586 12.8109 5.56586C10.9196 5.56586 8.1997 7.27704 8.1997 10.4833C8.1997 12.3746 9.28045 13.6895 10.9196 13.6895C13.3693 13.6895 14.9183 11.7802 14.9183 11.546C14.9183 11.4379 14.8103 11.3479 14.7382 11.3479C14.6842 11.3479 14.6662 11.3659 14.5041 11.528C13.3513 13.059 11.6401 13.3292 10.9556 13.3292C9.92889 13.3292 9.38852 12.5187 9.38852 11.1857C9.38852 10.9336 9.38852 10.4833 9.65871 9.33046H10.6134ZM9.74877 8.97021C10.5233 6.19629 12.2345 5.92611 12.8109 5.92611C13.6034 5.92611 14.1438 6.39443 14.1438 7.0789C14.1438 8.97021 11.2618 8.97021 10.5053 8.97021H9.74877Z" fill="black"/>
<path d="M19.274 8.2317C19.3101 8.12363 19.7604 7.223 20.4268 6.6466C20.8952 6.21431 21.5076 5.92611 22.2101 5.92611C22.9306 5.92611 23.1827 6.46648 23.1827 7.18698C23.1827 8.21369 22.4442 10.2671 22.084 11.2398C21.9219 11.6721 21.8318 11.9062 21.8318 12.2305C21.8318 13.041 22.3902 13.6895 23.2548 13.6895C24.9299 13.6895 25.5604 11.0416 25.5604 10.9336C25.5604 10.8435 25.4883 10.7715 25.3803 10.7715C25.2181 10.7715 25.2001 10.8255 25.1101 11.1317C24.6958 12.6087 24.0113 13.3292 23.3088 13.3292C23.1287 13.3292 22.8405 13.3112 22.8405 12.7348C22.8405 12.2845 23.0386 11.7441 23.1467 11.492C23.507 10.5013 24.2635 8.48387 24.2635 7.45717C24.2635 6.37642 23.633 5.56586 22.2641 5.56586C20.661 5.56586 19.8144 6.70064 19.4902 7.15095C19.4361 6.12424 18.6976 5.56586 17.9051 5.56586C17.3287 5.56586 16.9324 5.90809 16.6262 6.52052C16.302 7.16897 16.0498 8.24971 16.0498 8.32176C16.0498 8.39381 16.1219 8.48387 16.2479 8.48387C16.392 8.48387 16.4101 8.46586 16.5181 8.05158C16.8063 6.95282 17.1306 5.92611 17.851 5.92611C18.2653 5.92611 18.4094 6.21431 18.4094 6.75468C18.4094 7.15095 18.2293 7.85344 18.1032 8.41182L17.5989 10.3572C17.5268 10.6994 17.3287 11.51 17.2386 11.8342C17.1125 12.3025 16.9144 13.1491 16.9144 13.2392C16.9144 13.4913 17.1125 13.6895 17.3827 13.6895C17.5989 13.6895 17.851 13.5814 17.9951 13.3112C18.0312 13.2211 18.1933 12.5907 18.2833 12.2305L18.6796 10.6093L19.274 8.2317Z" fill="black"/>
<path d="M31.9455 17.8864C31.9455 17.8323 31.9455 17.7963 31.6393 17.4901C29.8381 15.6708 28.8294 12.6988 28.8294 9.02424C28.8294 5.52982 29.6759 2.52174 31.7654 0.396274C31.9455 0.234161 31.9455 0.198137 31.9455 0.144099C31.9455 0.0360246 31.8554 0 31.7834 0C31.5492 0 30.0722 1.2969 29.1896 3.06212C28.271 4.88137 27.8567 6.80871 27.8567 9.02424C27.8567 10.6273 28.1089 12.7708 29.0455 14.6982C30.1082 16.8597 31.5853 18.0305 31.7834 18.0305C31.8554 18.0305 31.9455 17.9944 31.9455 17.8864Z" fill="black"/>
<path d="M38.372 11.3659C38.282 11.6721 38.282 11.7081 38.0298 12.0503C37.6335 12.5547 36.841 13.3292 35.9944 13.3292C35.2559 13.3292 34.8416 12.6628 34.8416 11.6C34.8416 10.6093 35.4 8.59195 35.7422 7.83543C36.3546 6.57455 37.2012 5.92611 37.9037 5.92611C39.0925 5.92611 39.3267 7.40313 39.3267 7.54723C39.3267 7.56524 39.2727 7.7994 39.2547 7.83543L38.372 11.3659ZM39.5248 6.75468C39.3267 6.28636 38.8404 5.56586 37.9037 5.56586C35.8683 5.56586 33.6708 8.19567 33.6708 10.8615C33.6708 12.6448 34.7155 13.6895 35.9404 13.6895C36.931 13.6895 37.7776 12.9149 38.282 12.3205C38.4621 13.3833 39.3087 13.6895 39.8491 13.6895C40.3894 13.6895 40.8217 13.3652 41.146 12.7168C41.4342 12.1044 41.6863 11.0056 41.6863 10.9336C41.6863 10.8435 41.6143 10.7715 41.5062 10.7715C41.3441 10.7715 41.3261 10.8615 41.254 11.1317C40.9838 12.1944 40.6416 13.3292 39.9031 13.3292C39.3807 13.3292 39.3447 12.8609 39.3447 12.5007C39.3447 12.0864 39.3988 11.8882 39.5609 11.1857C39.687 10.7354 39.777 10.3392 39.9211 9.8168C40.5876 7.11493 40.7497 6.46648 40.7497 6.3584C40.7497 6.10623 40.5515 5.90809 40.2814 5.90809C39.705 5.90809 39.5609 6.53853 39.5248 6.75468Z" fill="black"/>
<path d="M47.2882 9.02424C47.2882 7.65529 47.1081 5.42175 46.0994 3.3323C45.0366 1.17081 43.5596 0 43.3615 0C43.2894 0 43.1994 0.0360246 43.1994 0.144099C43.1994 0.198137 43.1994 0.234162 43.5056 0.540374C45.3068 2.35963 46.3155 5.33169 46.3155 9.00623C46.3155 12.5006 45.4689 15.5087 43.3795 17.6342C43.1994 17.7963 43.1994 17.8323 43.1994 17.8864C43.1994 17.9944 43.2894 18.0305 43.3615 18.0305C43.5956 18.0305 45.0727 16.7336 45.9553 14.9684C46.8739 13.1311 47.2882 11.1857 47.2882 9.02424Z" fill="black"/>
</svg>
