<svg width="23" height="19" viewBox="0 0 23 19" fill="none" xmlns="http://www.w3.org/2000/svg">
<path d="M6.29002 1.48026C6.29902 1.44424 6.31704 1.3902 6.31704 1.34517C6.31704 1.20107 6.13691 1.21008 6.02884 1.21908L5.02014 1.30014C4.86703 1.30915 4.74995 1.31815 4.74995 1.5343C4.74995 1.66939 4.86703 1.66939 5.01113 1.66939C5.27231 1.66939 5.33536 1.69641 5.45244 1.73244C5.44343 1.88554 5.44343 1.90356 5.3984 2.08368L4.98411 3.74083C4.91207 4.01101 4.56082 5.434 4.5248 5.56008C4.47977 5.77623 4.47977 5.92033 4.47977 6.02841C4.47977 7.03711 5.15523 7.55046 5.89374 7.55046C7.10058 7.55046 8.30741 6.3076 8.30741 5.01971C8.30741 4.09207 7.65896 3.48865 6.8484 3.48865C6.29902 3.48865 5.8307 3.83089 5.65958 3.98399L6.29002 1.48026ZM5.49747 4.61443C5.77666 4.22716 6.29902 3.78586 6.82139 3.78586C7.2807 3.78586 7.54188 4.14611 7.54188 4.66847C7.54188 4.98369 7.36176 5.96536 7.02853 6.49673C6.72232 6.99207 6.27201 7.25325 5.90275 7.25325C5.62356 7.25325 5.15523 7.09114 5.15523 6.31661C5.15523 6.03741 5.18225 5.89331 5.29933 5.41598C5.35337 5.20884 5.46144 4.77654 5.49747 4.61443Z" fill="black"/>
<path d="M5.69194 16.1211L2.52174 9.1143C2.39566 8.8261 2.30559 8.8261 2.25156 8.8261C2.23354 8.8261 2.14348 8.8261 1.94535 8.9702L0.234162 10.2671C4.49022e-08 10.4472 0 10.5013 0 10.5553C0 10.6454 0.0540381 10.7534 0.180125 10.7534C0.2882 10.7534 0.594412 10.5013 0.792549 10.3572C0.900624 10.2671 1.17081 10.069 1.36895 9.92486L4.9174 17.7243C5.04349 18.0125 5.13355 18.0125 5.29566 18.0125C5.56585 18.0125 5.61989 17.9044 5.74597 17.6522L13.9236 0.720499C14.0497 0.468325 14.0497 0.396274 14.0497 0.36025C14.0497 0.180125 13.9056 0 13.6895 0C13.5454 0 13.4193 0.0900625 13.2752 0.378262L5.69194 16.1211Z" fill="black"/>
<path d="M22.9539 3.8147e-05H13.6955V0.720502H22.9539V3.8147e-05Z" fill="black"/>
<path d="M19.1173 12.4303C19.0272 12.7366 19.0272 12.7726 18.775 13.1148C18.3788 13.6192 17.5862 14.3937 16.7396 14.3937C16.0011 14.3937 15.5868 13.7272 15.5868 12.6645C15.5868 11.6738 16.1452 9.65643 16.4874 8.8999C17.0999 7.63903 17.9465 6.99058 18.6489 6.99058C19.8378 6.99058 20.0719 8.4676 20.0719 8.6117C20.0719 8.62972 20.0179 8.86388 19.9999 8.8999L19.1173 12.4303ZM20.2701 7.81915C20.0719 7.35083 19.5856 6.63033 18.6489 6.63033C16.6135 6.63033 14.416 9.26015 14.416 11.926C14.416 13.7092 15.4607 14.754 16.6856 14.754C17.6763 14.754 18.5229 13.9794 19.0272 13.385C19.2073 14.4477 20.0539 14.754 20.5943 14.754C21.1347 14.754 21.567 14.4297 21.8912 13.7813C22.1794 13.1689 22.4316 12.0701 22.4316 11.998C22.4316 11.908 22.3595 11.8359 22.2514 11.8359C22.0893 11.8359 22.0713 11.926 21.9993 12.1962C21.7291 13.2589 21.3868 14.3937 20.6483 14.3937C20.126 14.3937 20.0899 13.9254 20.0899 13.5651C20.0899 13.1508 20.144 12.9527 20.3061 12.2502C20.4322 11.7999 20.5222 11.4036 20.6663 10.8813C21.3328 8.1794 21.4949 7.53096 21.4949 7.42288C21.4949 7.17071 21.2968 6.97257 21.0266 6.97257C20.4502 6.97257 20.3061 7.60301 20.2701 7.81915Z" fill="black"/>
</svg>
