<svg width="47" height="19" viewBox="0 0 47 19" fill="none" xmlns="http://www.w3.org/2000/svg">
<path d="M3.22423 6.26833H4.88137C5.22361 6.26833 5.40374 6.26833 5.40374 5.94411C5.40374 5.74597 5.29566 5.74597 4.93541 5.74597H3.35032L4.01678 3.11615C4.08883 2.86398 4.08883 2.82795 4.08883 2.70187C4.08883 2.41367 3.85467 2.25156 3.6205 2.25156C3.4764 2.25156 3.06212 2.30559 2.91802 2.88199L2.21553 5.74597H0.522361C0.162111 5.74597 0 5.74597 0 6.08821C0 6.26833 0.126087 6.26833 0.468323 6.26833H2.07143L0.88261 11.0236C0.738511 11.6541 0.684473 11.8342 0.684473 12.0683C0.684473 12.9149 1.27888 13.6895 2.28758 13.6895C4.10684 13.6895 5.07951 11.0596 5.07951 10.9336C5.07951 10.8255 5.00746 10.7714 4.89939 10.7714C4.86336 10.7714 4.79131 10.7714 4.75529 10.8435C4.73728 10.8615 4.71926 10.8795 4.59318 11.1677C4.21491 12.0683 3.38634 13.3292 2.34162 13.3292C1.80125 13.3292 1.76522 12.8789 1.76522 12.4826C1.76522 12.4646 1.76522 12.1224 1.81926 11.9062L3.22423 6.26833Z" fill="black"/>
<path d="M11.3944 11.3659C11.3043 11.6721 11.3043 11.7081 11.0522 12.0503C10.6559 12.5547 9.86334 13.3292 9.01675 13.3292C8.27824 13.3292 7.86396 12.6628 7.86396 11.6C7.86396 10.6093 8.42234 8.59195 8.76458 7.83543C9.377 6.57455 10.2236 5.92611 10.9261 5.92611C12.1149 5.92611 12.3491 7.40313 12.3491 7.54723C12.3491 7.56524 12.295 7.7994 12.277 7.83543L11.3944 11.3659ZM12.5472 6.75468C12.3491 6.28636 11.8627 5.56586 10.9261 5.56586C8.89066 5.56586 6.69315 8.19567 6.69315 10.8615C6.69315 12.6448 7.73787 13.6895 8.96271 13.6895C9.9534 13.6895 10.8 12.9149 11.3043 12.3205C11.4845 13.3833 12.331 13.6895 12.8714 13.6895C13.4118 13.6895 13.8441 13.3652 14.1683 12.7168C14.4565 12.1044 14.7087 11.0056 14.7087 10.9336C14.7087 10.8435 14.6366 10.7715 14.5286 10.7715C14.3665 10.7715 14.3484 10.8615 14.2764 11.1317C14.0062 12.1944 13.664 13.3292 12.9255 13.3292C12.4031 13.3292 12.3671 12.8609 12.3671 12.5007C12.3671 12.0864 12.4211 11.8882 12.5832 11.1857C12.7093 10.7354 12.7994 10.3392 12.9435 9.8168C13.6099 7.11493 13.772 6.46648 13.772 6.3584C13.772 6.10623 13.5739 5.90809 13.3037 5.90809C12.7273 5.90809 12.5832 6.53853 12.5472 6.75468Z" fill="black"/>
<path d="M18.9416 8.2317C18.9776 8.12363 19.4279 7.223 20.0944 6.6466C20.5627 6.21431 21.1751 5.92611 21.8776 5.92611C22.5981 5.92611 22.8503 6.46648 22.8503 7.18698C22.8503 8.21369 22.1118 10.2671 21.7515 11.2398C21.5894 11.6721 21.4994 11.9062 21.4994 12.2305C21.4994 13.041 22.0578 13.6895 22.9224 13.6895C24.5975 13.6895 25.228 11.0416 25.228 10.9336C25.228 10.8435 25.1559 10.7715 25.0478 10.7715C24.8857 10.7715 24.8677 10.8255 24.7776 11.1317C24.3634 12.6087 23.6789 13.3292 22.9764 13.3292C22.7963 13.3292 22.5081 13.3112 22.5081 12.7348C22.5081 12.2845 22.7062 11.7441 22.8143 11.492C23.1745 10.5013 23.9311 8.48387 23.9311 7.45717C23.9311 6.37642 23.3006 5.56586 21.9317 5.56586C20.3286 5.56586 19.482 6.70064 19.1578 7.15095C19.1037 6.12424 18.3652 5.56586 17.5727 5.56586C16.9963 5.56586 16.6 5.90809 16.2938 6.52052C15.9696 7.16897 15.7174 8.24971 15.7174 8.32176C15.7174 8.39381 15.7894 8.48387 15.9155 8.48387C16.0596 8.48387 16.0776 8.46586 16.1857 8.05158C16.4739 6.95282 16.7981 5.92611 17.5186 5.92611C17.9329 5.92611 18.077 6.21431 18.077 6.75468C18.077 7.15095 17.8969 7.85344 17.7708 8.41182L17.2664 10.3572C17.1944 10.6994 16.9963 11.51 16.9062 11.8342C16.7801 12.3025 16.582 13.1491 16.582 13.2392C16.582 13.4913 16.7801 13.6895 17.0503 13.6895C17.2664 13.6895 17.5186 13.5814 17.6627 13.3112C17.6987 13.2211 17.8609 12.5907 17.9509 12.2305L18.3472 10.6093L18.9416 8.2317Z" fill="black"/>
<path d="M31.6131 17.8864C31.6131 17.8323 31.6131 17.7963 31.3069 17.4901C29.5056 15.6708 28.4969 12.6988 28.4969 9.02424C28.4969 5.52982 29.3435 2.52174 31.433 0.396274C31.6131 0.234161 31.6131 0.198137 31.6131 0.144099C31.6131 0.0360246 31.523 0 31.451 0C31.2168 0 29.7398 1.2969 28.8572 3.06212C27.9385 4.88137 27.5242 6.80871 27.5242 9.02424C27.5242 10.6273 27.7764 12.7708 28.7131 14.6982C29.7758 16.8597 31.2528 18.0305 31.451 18.0305C31.523 18.0305 31.6131 17.9944 31.6131 17.8864Z" fill="black"/>
<path d="M38.0396 11.3659C37.9496 11.6721 37.9496 11.7081 37.6974 12.0503C37.3011 12.5547 36.5086 13.3292 35.662 13.3292C34.9235 13.3292 34.5092 12.6628 34.5092 11.6C34.5092 10.6093 35.0676 8.59195 35.4098 7.83543C36.0222 6.57455 36.8688 5.92611 37.5713 5.92611C38.7601 5.92611 38.9943 7.40313 38.9943 7.54723C38.9943 7.56524 38.9402 7.7994 38.9222 7.83543L38.0396 11.3659ZM39.1924 6.75468C38.9943 6.28636 38.5079 5.56586 37.5713 5.56586C35.5359 5.56586 33.3384 8.19567 33.3384 10.8615C33.3384 12.6448 34.3831 13.6895 35.6079 13.6895C36.5986 13.6895 37.4452 12.9149 37.9496 12.3205C38.1297 13.3833 38.9763 13.6895 39.5166 13.6895C40.057 13.6895 40.4893 13.3652 40.8135 12.7168C41.1017 12.1044 41.3539 11.0056 41.3539 10.9336C41.3539 10.8435 41.2819 10.7715 41.1738 10.7715C41.0117 10.7715 40.9937 10.8615 40.9216 11.1317C40.6514 12.1944 40.3092 13.3292 39.5707 13.3292C39.0483 13.3292 39.0123 12.8609 39.0123 12.5007C39.0123 12.0864 39.0663 11.8882 39.2284 11.1857C39.3545 10.7354 39.4446 10.3392 39.5887 9.8168C40.2551 7.11493 40.4173 6.46648 40.4173 6.3584C40.4173 6.10623 40.2191 5.90809 39.9489 5.90809C39.3725 5.90809 39.2284 6.53853 39.1924 6.75468Z" fill="black"/>
<path d="M46.9558 9.02424C46.9558 7.65529 46.7756 5.42175 45.7669 3.3323C44.7042 1.17081 43.2272 0 43.0291 0C42.957 0 42.8669 0.0360246 42.8669 0.144099C42.8669 0.198137 42.8669 0.234162 43.1732 0.540374C44.9744 2.35963 45.9831 5.33169 45.9831 9.00623C45.9831 12.5006 45.1365 15.5087 43.0471 17.6342C42.8669 17.7963 42.8669 17.8323 42.8669 17.8864C42.8669 17.9944 42.957 18.0305 43.0291 18.0305C43.2632 18.0305 44.7402 16.7336 45.6228 14.9684C46.5415 13.1311 46.9558 11.1857 46.9558 9.02424Z" fill="black"/>
</svg>
